<?xml version="1.0" encoding="utf-8" ?>
<svg xmlns="http://www.w3.org/2000/svg" xmlns:xlink="http://www.w3.org/1999/xlink" width="1024" height="1024">
	<path fill="#144484" transform="scale(2 2)" d="M85.6657 259.786C87.9803 260.589 95.1106 262.216 97.5153 262.354C125.512 270.179 147.341 296.269 152.812 324.508C171.459 324.464 173.132 324.354 191.027 329.624L217.302 337.22C219.995 328.116 225.433 319.088 232.276 312.504C255.254 290.394 282.867 313.949 308.254 314.246C318.317 314.364 321.44 308.519 327.828 302.229C330.624 297.529 335.566 290.573 338.794 286.005C354.239 293.837 370.511 299.425 387.716 301.593C400.902 303.254 414.767 307.182 413.603 324.508L414.325 324.999C423.884 331.591 423.629 345.597 413.38 351.592C403.535 357.351 374.521 364.764 364.038 365.936C356.555 366.773 342.558 365.788 334.5 365.791L293.197 365.804C278.553 365.807 264.465 365.931 250.34 361.568L180.988 341.096C168.167 337.338 161.349 338.396 148.033 338.397L108.486 338.383C102.368 338.38 96.1839 338.649 90.0739 338.427C83.2558 338.179 80.4531 331.309 72.5482 332.479C73.2619 324.456 75.7954 317.228 79.681 310.216C80.0383 309.205 79.2935 308.014 79.0486 307.029C76.1896 295.53 79.7231 283.573 81.6985 272.186C82.4498 268.521 82.9642 262.405 85.6657 259.786Z"/>
	<path fill="#6CDBEE" transform="scale(2 2)" d="M338.794 286.005C354.239 293.837 370.511 299.425 387.716 301.593C400.902 303.254 414.767 307.182 413.603 324.508C405.483 324.319 381.244 331.019 370.994 332.426C357.365 334.297 352.861 336.462 350.497 352.456L312.484 352.46C306.952 352.463 301.38 352.595 295.852 352.431C289.664 352.246 285.59 351.644 278.998 351.797C265.651 352.106 243.245 345.311 229.574 340.851C225.481 340.247 221.299 338.362 217.302 337.22C219.995 328.116 225.433 319.088 232.276 312.504C255.254 290.394 282.867 313.949 308.254 314.246C318.317 314.364 321.44 308.519 327.828 302.229C330.624 297.529 335.566 290.573 338.794 286.005Z"/>
	<path fill="#0C9DF4" transform="scale(2 2)" d="M327.828 302.229C329.822 306.608 331.52 310.62 329.793 315.501C323.898 332.166 299.926 327.05 286.972 323.61C249.57 313.677 248.518 308.94 229.574 340.851C225.481 340.247 221.299 338.362 217.302 337.22C219.995 328.116 225.433 319.088 232.276 312.504C255.254 290.394 282.867 313.949 308.254 314.246C318.317 314.364 321.44 308.519 327.828 302.229Z"/>
	<path fill="#6CDBEE" transform="scale(2 2)" d="M85.6657 259.786C87.9803 260.589 95.1106 262.216 97.5153 262.354C125.512 270.179 147.341 296.269 152.812 324.508C148.159 324.526 143.49 324.636 138.839 324.508L117.694 324.516C102.059 324.516 88.9284 325.352 79.681 310.216C80.0383 309.205 79.2935 308.014 79.0486 307.029C76.1896 295.53 79.7231 283.573 81.6985 272.186C82.4498 268.521 82.9642 262.405 85.6657 259.786Z"/>
	<path fill="#0C9DF4" transform="scale(2 2)" d="M85.6657 259.786C87.9803 260.589 95.1106 262.216 97.5153 262.354C125.512 270.179 147.341 296.269 152.812 324.508C148.159 324.526 143.49 324.636 138.839 324.508C132.881 297.755 109.166 275.072 81.6985 272.186C82.4498 268.521 82.9642 262.405 85.6657 259.786Z"/>
	<path fill="#0C9DF4" transform="scale(2 2)" d="M301.405 120.59C301.268 114.953 305.998 105.846 309.345 101.33C324.555 80.8074 354.843 77.2349 374.978 92.4477C382.441 98.0861 391.319 110.219 392.639 119.873C410.378 122.103 422.303 132.776 426.166 149.981C434.405 149.843 442.482 149.003 448.921 155.166C458.631 164.46 455.15 182.157 441.831 186.048C433.394 188.514 413.91 186.326 403.13 186.86C400.394 186.984 386.205 187.423 383.856 186.86C380.107 186.552 376.004 186.862 372.214 186.861L346.797 186.86C344.146 187.003 330.113 187.386 327.828 186.86C322.729 186.453 317.242 186.849 312.105 186.853L279.065 186.873C268.851 186.876 258.372 188.747 252.058 178.707C243.234 164.676 256.044 147.744 273.535 152.078C275.259 135.66 285.169 124.412 301.405 120.59Z"/>
	<path fill="#FDA641" transform="scale(2 2)" d="M301.405 120.59C301.268 114.953 305.998 105.846 309.345 101.33C324.555 80.8074 354.843 77.2349 374.978 92.4477C382.441 98.0861 391.319 110.219 392.639 119.873C374.717 120.25 362.717 130.956 357.269 147.36C351.194 142.842 344.357 141.469 336.9 141.765C330.445 127.945 317.127 117.774 301.405 120.59Z"/>
	<path fill="#144484" transform="scale(2 2)" d="M193.851 240.499C179.357 223.094 189.546 222.846 204.511 213.955C211.314 209.913 218.054 205.53 225.023 201.791C229.459 199.411 232.243 199.07 235.056 203.481C237.534 207.367 242.955 219.05 245.032 223.728C255.657 218.129 261.244 229.181 253.156 234.99C255.069 237.031 257.304 239.085 258.94 241.348C261.257 238.944 263.992 235.299 267.634 235.238C271.209 235.179 274.778 238.376 274.451 242.08C274.192 245.02 271.328 247.464 269.428 249.521C272.998 251.756 276.815 253.945 280.233 256.386C292.443 243.666 298.092 257.509 291.432 263.873C294.374 264.907 297.193 266.451 299.647 268.381C303.19 259.81 311.984 258.664 314.402 268.381C313.865 270.323 313.333 271.929 312.103 273.568C316.682 275.163 321.385 277.498 325.626 279.847C323.477 284.489 316.999 295.757 313.386 298.973C307.005 304.653 299.24 300.542 292.271 298.503C279.265 294.697 266.136 291.553 252.907 288.628C224.887 282.433 221.001 273.569 201.686 251.748C175.882 282.963 122.227 274.835 113.791 233.972C110.468 233.523 107.181 232.868 103.837 232.585C103.872 244.53 103.678 251.777 97.5153 262.354C95.1106 262.216 87.9803 260.589 85.6657 259.786C92.399 247.862 90.3965 239.627 90.7662 226.879C90.9221 221.503 93.7418 218.332 99.2876 218.578C103.703 218.774 120.178 220.328 123.303 221.927C127.214 223.927 126.486 230.976 127.66 234.728C135.216 258.875 169.13 264.6 186.924 247.91C189.285 245.695 191.149 243.012 193.527 240.797L193.851 240.499Z"/>
	<path fill="#EE7159" transform="scale(2 2)" d="M245.032 223.728C255.657 218.129 261.244 229.181 253.156 234.99C248.524 236.568 233.019 245.094 229.249 243.863C224.429 242.289 223.113 235.017 227.395 232.06C230.425 229.968 240.892 225.643 245.032 223.728Z"/>
	<path fill="#EE7159" transform="scale(2 2)" d="M258.94 241.348C261.257 238.944 263.992 235.299 267.634 235.238C271.209 235.179 274.778 238.376 274.451 242.08C274.192 245.02 271.328 247.464 269.428 249.521C265.013 252.973 251.621 274.887 246.725 257.247C248.676 251.547 254.943 245.943 258.94 241.348Z"/>
	<path fill="#EE7159" transform="scale(2 2)" d="M280.233 256.386C292.443 243.666 298.092 257.509 291.432 263.873C286.825 267.334 283.092 276.81 277.038 277.823C273.689 278.384 270.16 274.758 269.902 271.606C269.554 267.357 277.444 259.756 280.233 256.386Z"/>
	<path fill="#EE7159" transform="scale(2 2)" d="M299.647 268.381C303.19 259.81 311.984 258.664 314.402 268.381C313.865 270.323 313.333 271.929 312.103 273.568C307.409 278.366 307.131 285.345 299.647 287.385C288.577 284.404 294.326 274.165 299.647 268.381Z"/>
	<path fill="#0C9DF4" transform="scale(2 2)" d="M116.003 378.774C124.689 378.946 133.414 378.777 142.105 378.777L348.031 378.774C348.175 383.203 348.191 387.755 348.031 392.184L116.003 392.184C116.026 387.715 115.821 383.239 116.003 378.774Z"/>
	<path fill="#144484" transform="scale(2 2)" d="M72.5482 345.96C77.1971 346.188 79.1127 351.147 83.9391 351.47C90.9366 351.937 98.2004 351.5 105.23 351.5L147.763 351.5C154.636 351.493 163.935 350.898 170.58 351.91C173.818 352.403 214.777 364.168 217.302 365.8C208.433 366.165 199.379 365.804 190.491 365.804L104.116 365.806C87.386 365.807 74.068 368.303 72.5482 345.96Z"/>
	<path fill="#FDA641" transform="scale(2 2)" d="M383.856 186.86C386.205 187.423 400.394 186.984 403.13 186.86C399.544 192.766 366.076 224.174 359.73 230.356C355.001 234.963 350.023 242.165 343.372 243.94C325.018 238.227 349.021 221.311 355.277 215.132L376.72 194.107C379.134 191.73 381.405 189.196 383.856 186.86Z"/>
	<path fill="#FDA641" transform="scale(2 2)" d="M327.828 186.86C330.113 187.386 344.146 187.003 346.797 186.86C343.401 191.778 335.083 198.995 330.564 203.56L309.2 224.946C304.571 229.544 299.958 236.16 293.41 237.883C275.228 232.614 297.354 216.844 303.508 210.837L327.828 186.86Z"/>
	<path fill="#0C9DF4" transform="scale(2 2)" d="M62.4322 378.774C75.5449 378.304 88.7724 379.484 101.841 378.774C101.863 383.243 101.918 387.715 101.841 392.184L96.6875 392.184L74.8737 392.198C71.0434 392.214 67.0385 392.479 63.2238 392.211C55.5333 391.672 55.3695 380.48 62.4322 378.774Z"/>
	<path fill="#0C9DF4" transform="scale(2 2)" d="M389.285 371.555C394.08 371.559 396.35 374.191 396.99 378.774C400.778 379.328 404.017 380.79 404.014 385.18C404.007 393.075 383.812 390.199 378.925 390.18L364.537 390.18L364.537 378.774C368.808 378.243 379.383 378.543 383.856 378.774C384.193 374.925 385.423 372.916 389.285 371.555Z"/>
	<path fill="#0C9DF4" transform="scale(2 2)" d="M106.222 400.973C110.277 405.482 113.888 405.334 119.725 405.245C114.551 411.775 105.545 419.853 99.5376 425.839C95.2648 429.574 88.4897 427.599 88.6575 421.246C88.7775 416.703 102.552 404.53 106.222 400.973Z"/>
	<path fill="#0C9DF4" transform="scale(2 2)" d="M361.277 404.033C364.897 407.604 376.37 417.06 376.682 421.281C377.107 427.047 370.007 430.789 364.537 424.867C357.706 419.759 352.077 412.22 345.058 406.973C351.054 407.547 356.154 407.501 361.277 404.033Z"/>
	<path fill="#0C9DF4" transform="scale(2 2)" d="M329.143 405.245C332.509 409.072 337.074 412.177 339.731 416.53C340.083 426.349 330.514 427.677 325.626 420.438C320.01 416.134 315.045 410.824 309.801 406.065C317.838 406.31 321.054 408.881 329.143 405.245Z"/>
	<path fill="#0C9DF4" transform="scale(2 2)" d="M382.486 245.75C389.514 245.561 406.392 262.771 392.639 266.752C385.758 267.038 368.044 250.899 382.486 245.75Z"/>
	<path fill="#0C9DF4" transform="scale(2 2)" d="M154.954 405.245C158.354 405.031 143.041 419.186 141.176 420.68C138.576 422.763 135.951 423.009 133.064 421.247C126.351 415.054 133.459 409.025 138.839 405.245L154.954 405.245Z"/>
	<path fill="#0C9DF4" transform="scale(2 2)" d="M408.82 215.529C416.524 214.803 431.413 231.454 419.101 234.99C410.408 235.617 396.068 219.879 408.82 215.529Z"/>
	<path fill="#0C9DF4" transform="scale(2 2)" d="M155.862 178.765C166.446 177.994 176.32 189.557 164.219 194.451C154.417 194.825 143.234 184.735 155.862 178.765Z"/>
	<path fill="#0C9DF4" transform="scale(2 2)" d="M183.602 152.078C189.744 152.328 192.037 159.042 193.851 163.972C193.043 167.459 191.456 169.684 187.844 170.738C186.694 170.812 185.539 170.762 184.388 170.738C177.719 167.164 173.044 153.846 183.602 152.078Z"/>
	<path fill="#0C9DF4" transform="scale(2 2)" d="M126.481 168.071C136.78 166.51 146.765 179.225 134.893 183.153C125.298 184.248 114.97 173.398 126.481 168.071Z"/>
	<path fill="#0C9DF4" transform="scale(2 2)" d="M219.335 149.981C229.746 147.356 228.956 165.564 220.437 168.071C209.997 168.996 210.469 150.623 219.335 149.981Z"/>
	<path fill="#0C9DF4" transform="scale(2 2)" d="M170.4 124.26C179.496 123.707 184.463 138.437 174.786 141.765C165.335 143.116 160.529 127.807 170.4 124.26Z"/>
	<path fill="#0C9DF4" transform="scale(2 2)" d="M225.44 119.873C228.999 119.085 230.896 120.168 232.712 123.349C232.846 129.053 233.187 135.21 226.865 137.351C215.878 138.847 217.255 120.401 225.44 119.873Z"/>
</svg>
