<?xml version="1.0" encoding="utf-8" ?>
<svg xmlns="http://www.w3.org/2000/svg" xmlns:xlink="http://www.w3.org/1999/xlink" width="1024" height="1024">
	<path fill="#F26339" transform="scale(2 2)" d="M215.611 201.555C225.089 214.218 238.063 228.571 246.223 241.717C249.704 244.085 253.368 246.321 256.228 249.442C261.267 246.216 270.72 235.624 273.997 230.944C276.25 232.303 278.701 233.579 280.773 235.198C277.098 242.069 269.724 251.092 263.147 255.471C271.203 261.96 279.64 264.861 286.749 270.105C293.724 263.259 297.45 256.984 301.486 248.17C303.819 249.421 306.309 250.606 308.531 252.042C306.439 260.557 300.753 266.693 296.035 273.787C304.48 278.57 311.107 280.963 319.874 284.577C323.296 275.648 325.448 268.16 328.355 259.175C331.048 260.796 334.153 261.608 336.899 263.133C335.938 267.292 329.335 285.331 329.506 287.166L329.704 287.29C352.579 293.777 374.345 300.703 397.754 306.166C409.361 308.874 420.342 310.157 426.761 321.651C427.506 322.985 430.068 327.02 427.344 327.364C414.152 328.781 401.136 331.015 387.878 331.998C333.575 336.027 303.979 327.479 252.002 312.291C225.706 304.608 197.447 301.925 172.518 315.535C178.171 322.438 181.427 331.249 186.462 337.56C189.905 343.898 196.988 353.302 194.845 360.433C193.667 364.355 191.493 364.595 189.377 367.47C184.827 367.872 179.923 367.487 175.336 367.483L115.566 367.479C110.368 367.481 104.594 367.954 99.4703 367.117C82.0673 364.272 72.5678 344.06 78.2738 328.154C81.0998 320.276 88.6547 310.645 89.5018 302.681C89.7886 299.052 89.5121 295.181 89.507 291.524L89.4951 267.617C89.5234 256.669 94.477 247.679 106.547 247.81C123.027 247.989 126.418 274.293 157.123 274.673C176.932 274.918 192.432 262.473 205.92 249.442C185.693 233.246 202.53 215.225 215.611 201.555ZM284.294 284.577C284.282 280.43 282.509 279.212 278.698 277.851C269.325 283.473 279.49 291.799 284.294 284.577Z"/>
	<path fill="#6A74AD" transform="scale(2 2)" d="M102.002 297.943L125.074 297.929C145.025 297.929 157.69 298.933 172.518 315.535C178.171 322.438 181.427 331.249 186.462 337.56C189.905 343.898 196.988 353.302 194.845 360.433C193.667 364.355 191.493 364.595 189.377 367.47C184.827 367.872 179.923 367.487 175.336 367.483L115.566 367.479C110.368 367.481 104.594 367.954 99.4703 367.117C82.0673 364.272 72.5678 344.06 78.2738 328.154C81.0998 320.276 88.6547 310.645 89.5018 302.681L89.6752 303.502C90.8723 303.374 92.9939 298.365 102.002 297.943Z"/>
	<path fill="#FDFDFD" transform="scale(2 2)" d="M129.753 310.947C154.047 310.292 160.209 318.215 172.204 338.385C175.401 343.762 178.725 349 181.567 354.583L140.709 354.583L116.371 354.591C111.778 354.591 106.998 354.862 102.438 354.361C93.6955 353.401 87.8832 344.235 89.3848 335.868C90.5399 329.432 97.9005 317.558 100.801 310.947L129.753 310.947Z"/>
	<path fill="#5A468C" transform="scale(2 2)" d="M215.611 201.555C225.089 214.218 238.063 228.571 246.223 241.717C249.704 244.085 253.368 246.321 256.228 249.442L255.88 249.682C253.138 251.549 250.583 253.599 247.865 255.471C228.739 240.513 217.136 257.747 203.451 268.417C176.308 289.581 141.787 295.84 115.37 268.374C112.708 265.606 110.382 261.765 106.838 260.094C105.264 260.52 103.53 260.865 102.621 262.374C101.403 264.395 101.997 293.261 102.002 297.943C92.9939 298.365 90.8723 303.374 89.6752 303.502L89.5018 302.681C89.7886 299.052 89.5121 295.181 89.507 291.524L89.4951 267.617C89.5234 256.669 94.477 247.679 106.547 247.81C123.027 247.989 126.418 274.293 157.123 274.673C176.932 274.918 192.432 262.473 205.92 249.442C185.693 233.246 202.53 215.225 215.611 201.555Z"/>
	<path fill="#EC6E85" transform="scale(2 2)" d="M215.611 201.555C225.089 214.218 238.063 228.571 246.223 241.717C229.21 234.926 218.964 237.943 205.92 249.442C185.693 233.246 202.53 215.225 215.611 201.555Z"/>
	<path fill="#5A468C" transform="scale(2 2)" d="M301.486 248.17C303.819 249.421 306.309 250.606 308.531 252.042C306.439 260.557 300.753 266.693 296.035 273.787C294.143 275.239 292.698 277.327 290.978 278.989L289.644 280.495C292.589 304.542 259.905 296.194 268.958 279.194C271.077 275.217 274.657 273.92 278.698 272.713C270.989 269.632 264.27 265.045 257.669 260.094C259.588 258.678 261.33 257.016 263.147 255.471C271.203 261.96 279.64 264.861 286.749 270.105C293.724 263.259 297.45 256.984 301.486 248.17ZM284.294 284.577C284.282 280.43 282.509 279.212 278.698 277.851C269.325 283.473 279.49 291.799 284.294 284.577Z"/>
	<path fill="#EF97AB" transform="scale(2 2)" d="M301.486 248.17C303.819 249.421 306.309 250.606 308.531 252.042C306.439 260.557 300.753 266.693 296.035 273.787C294.143 275.239 292.698 277.327 290.978 278.989L289.644 280.495C287.926 281.81 286.145 283.494 284.294 284.577C284.282 280.43 282.509 279.212 278.698 277.851C281.425 275.31 284.147 272.775 286.749 270.105C293.724 263.259 297.45 256.984 301.486 248.17Z"/>
	<path fill="#5A468C" transform="scale(2 2)" d="M328.355 259.175C331.048 260.796 334.153 261.608 336.899 263.133C335.938 267.292 329.335 285.331 329.506 287.166L329.704 287.29C327.996 287.997 325.52 293.897 323.77 295.648C326.148 300.698 323.172 308.376 317.662 309.968C303.286 314.122 296.588 292.663 314.64 289.047C307.197 286.284 297.807 282.897 290.978 278.989C292.698 277.327 294.143 275.239 296.035 273.787C304.48 278.57 311.107 280.963 319.874 284.577C323.296 275.648 325.448 268.16 328.355 259.175Z"/>
	<path fill="#EC6E85" transform="scale(2 2)" d="M328.355 259.175C331.048 260.796 334.153 261.608 336.899 263.133C335.938 267.292 329.335 285.331 329.506 287.166L329.704 287.29C327.996 287.997 325.52 293.897 323.77 295.648C322.458 296.94 321.147 298.23 319.874 299.56L319.842 299.159C319.615 295.986 317.083 293.039 314.105 292.033C316.134 289.657 317.949 287.044 319.874 284.577C323.296 275.648 325.448 268.16 328.355 259.175Z"/>
	<path fill="#EF97AB" transform="scale(2 2)" d="M314.105 292.033C317.083 293.039 319.615 295.986 319.842 299.159L319.874 299.56C315.062 306.221 305.803 299.654 314.105 292.033Z"/>
	<path fill="#EF97AB" transform="scale(2 2)" d="M273.997 230.944C276.25 232.303 278.701 233.579 280.773 235.198C277.098 242.069 269.724 251.092 263.147 255.471C261.33 257.016 259.588 258.678 257.669 260.094C255.445 261.237 253.429 263.156 251.493 264.734C249.157 265.774 238.825 275.314 238.021 266.177C237.661 262.09 243.089 259.868 245.346 257.199C246.243 256.685 247.046 256.101 247.865 255.471C250.583 253.599 253.138 251.549 255.88 249.682L256.228 249.442C261.267 246.216 270.72 235.624 273.997 230.944Z"/>
	<path fill="#5A468C" transform="scale(2 2)" d="M251.493 264.734C252.774 271.401 247.388 279.068 240.183 278.06C226.484 276.142 226.419 253.139 245.346 257.199C243.089 259.868 237.661 262.09 238.021 266.177C238.825 275.314 249.157 265.774 251.493 264.734Z"/>
	<path fill="#FDD272" transform="scale(2 2)" d="M271.514 119.768C284.077 75.9683 348.03 81.1706 354.982 126.529C355.216 128.055 355.156 129.688 355.756 131.133C355.283 132.351 355.478 133.695 355.379 134.972C354.34 148.473 349.627 150.894 343.669 160.244L152.184 160.245C144.255 160.245 136.307 160.389 128.382 160.244C129.718 138.195 146.036 128.24 166.78 128.767C176.132 87.5905 228.844 85.8911 242.829 121.059C243.908 123.772 244.579 126.705 245.346 129.521L245.573 129.295C252.577 122.44 261.882 119.628 271.514 119.768Z"/>
	<path fill="#32A4DC" transform="scale(2 2)" d="M115.065 383.506L402.037 383.515C405.338 383.529 408.699 383.795 411.987 383.506C407.473 386.342 402.179 388.269 397.352 390.548L385.207 396.262C382.519 397.536 379.573 399.48 376.581 399.872L100.006 399.879C95.0328 399.907 86.8961 401.241 82.8556 397.61C79.4046 394.508 79.7308 388.784 82.9751 385.677C86.4738 382.327 92.077 383.476 96.4767 383.48L115.065 383.506Z"/>
	<path fill="#5A468C" transform="scale(2 2)" d="M429.391 334.075C438.137 329.579 434.903 345.902 433.31 349.257C423.881 369.111 356.821 367.475 337.676 367.477L189.377 367.47C191.493 364.595 193.667 364.355 194.845 360.433C196.988 353.302 189.905 343.898 186.462 337.56C202.471 332.788 226.381 339.27 241.569 344.262C260.415 350.457 262.685 351.498 282.984 352.663C317.826 354.663 398.421 352.915 429.391 334.075Z"/>
	<defs>
		<linearGradient id="gradient_0" gradientUnits="userSpaceOnUse" x1="209.42732" y1="366.02679" x2="299.55115" y2="462.0054">
			<stop offset="0" stop-color="#4DB0E2"/>
			<stop offset="1" stop-color="#96D7F3"/>
		</linearGradient>
	</defs>
	<path fill="url(#gradient_0)" transform="scale(2 2)" d="M127.376 408.195C135.649 407.999 143.966 408.202 152.243 408.204L358.865 408.195C355.406 410.581 329.135 422.901 325.397 423.478C321.606 424.064 317.521 423.769 313.683 423.762L131.681 423.767C128.453 423.777 124.855 424.107 121.67 423.746C111.648 423.237 105.964 407.127 127.376 408.195Z"/>
	<path fill="#32A4DC" transform="scale(2 2)" d="M121.67 423.746C111.648 423.237 105.964 407.127 127.376 408.195C133.511 408.776 163.812 407.104 166.397 409.148C165.524 409.953 163.424 409.785 161.951 411.074C159.364 413.336 158.764 417.505 155.579 419.1C155.931 419.63 156.25 420.177 156.567 420.729L156.379 421.119L155.856 421.093L155.512 421.549C155.727 422.913 156.88 422.936 158.058 422.902L158.108 423.187L158.444 422.901L158.626 422.902L158.595 423.148C150.905 423.351 127.929 422.62 121.67 423.746Z"/>
	<path fill="#32A4DC" transform="scale(2 2)" d="M128.382 191.917L176.245 191.917L176.245 207.558C172.916 207.866 169.331 207.584 165.976 207.577L144.614 207.558C145.846 236.809 129.736 240.658 104.779 240.628L83.9333 240.618C81.6464 244.138 79.7198 247.964 77.7111 251.648L69.5613 266.483C68.4899 268.452 66.4881 273.205 65.125 274.497C64.5911 271.516 65.0188 268.341 65.0811 265.328C65.3221 253.69 63.4981 241.549 72.6086 232.478C82.9877 222.144 103.364 225.451 117.564 225.339C128.828 225.251 129.847 217.773 129.753 208.43C116.411 207.601 116.378 208.257 109.955 220.246C104.235 220.33 98.5012 220.247 92.7802 220.246C101.229 201.884 106.938 193.416 128.382 191.917Z"/>
	<path fill="#FAB525" transform="scale(2 2)" d="M407.3 176.753C414.11 176.205 418.309 184.663 413.391 189.689C410.11 193.044 404.942 191.921 400.743 191.919L314.105 191.917C302.574 191.393 303.455 177.88 311.597 176.918C315.164 176.496 318.959 176.744 322.556 176.744L407.3 176.753Z"/>
	<path fill="#FAB525" transform="scale(2 2)" d="M355.756 131.133C376.853 124.519 398.066 137.728 399.939 160.244L343.669 160.244C349.627 150.894 354.34 148.473 355.379 134.972C355.478 133.695 355.283 132.351 355.756 131.133Z"/>
	<path fill="#FAB525" transform="scale(2 2)" d="M376.581 208.43C380.45 208.136 384.458 208.421 388.346 208.426L430.502 208.412C433.897 208.38 437.515 208.059 440.885 208.389C448.84 209.168 449.871 222.615 438.915 223.688L383.487 223.728C379.198 223.742 373.787 224.455 370.186 221.572C364.849 217.299 367.733 208.803 376.581 208.43Z"/>
	<path fill="#32A4DC" transform="scale(2 2)" d="M383.739 239.649L399.623 239.658C403.248 239.659 407.495 238.998 410.868 240.681C418.349 244.415 415.619 254.38 408.234 256.014C403.175 256.362 387.75 256.568 383.099 255.838C374.339 254.464 374.458 240.422 383.739 239.649Z"/>
	<path fill="#FAB525" transform="scale(2 2)" d="M342.549 208.43C345.975 208.421 350.309 207.903 353.347 209.684C359.994 213.579 357.025 222.271 350.307 223.688C346.784 223.79 342.373 224.408 339.257 222.461C332.906 218.493 335.812 209.625 342.549 208.43Z"/>
	<path fill="#9BD9F7" transform="scale(2 2)" d="M358.865 239.649C368.207 238.717 371.182 253.252 360.315 255.471C350.445 255.551 349.476 241.813 358.865 239.649Z"/>
</svg>
